<svg width="169" height="28" viewBox="0 0 169 28" fill="none" xmlns="http://www.w3.org/2000/svg">
<g clip-path="url(#clip0)">
<mask id="mask0" mask-type="alpha" maskUnits="userSpaceOnUse" x="27" y="5" width="20" height="24">
<path d="M27.5056 28.0006H46.6855V5.93533H27.5056V28.0006Z" fill="white"/>
</mask>
<g mask="url(#mask0)">
<path fill-rule="evenodd" clip-rule="evenodd" d="M42.3619 13.2822C42.3619 11.039 40.899 9.60865 38.8835 9.60865C37.4531 9.60865 36.1528 10.4215 35.3076 11.4944L34.0722 16.9233C34.7549 17.9959 36.0878 18.7436 37.7457 18.7436C40.4764 18.7436 42.3619 16.1755 42.3619 13.2822ZM33.4221 19.9464L31.6341 28.0084H27.5056L32.3168 6.32543H36.4453L35.9902 8.27581C37.3231 6.71553 38.851 5.93533 40.7365 5.93533C44.2799 5.93533 46.6855 8.27581 46.6855 12.437C46.6855 17.1507 43.7597 22.4172 38.4284 22.4172C36.3153 22.4172 34.4623 21.5067 33.4221 19.9464Z" fill="#636363"/>
</g>
<path fill-rule="evenodd" clip-rule="evenodd" d="M47.7905 22.0268L51.269 6.32543H55.3976L54.9422 8.37358C56.3076 6.87807 57.998 5.93546 60.5013 5.93546L59.591 10.0314C59.3308 9.96636 58.7458 9.8362 58.0958 9.8362C56.5677 9.8362 55.1049 10.6815 54.1946 11.7218L51.9191 22.0268H47.7905Z" fill="#636363"/>
<path fill-rule="evenodd" clip-rule="evenodd" d="M72.5288 12.6646C72.5613 12.5995 72.5613 12.4044 72.5613 12.3395C72.5613 10.7466 71.391 9.3162 68.9204 9.3162C66.6775 9.3162 65.0195 10.9416 64.6945 12.6646H72.5288ZM60.1108 15.3628C60.1108 10.2591 63.9468 5.93533 69.1805 5.93533C73.2115 5.93533 76.2348 8.536 76.2348 12.9248C76.2348 13.8674 76.0397 15.0377 75.9097 15.5253H64.2393V15.9154C64.2393 17.2482 65.6372 19.0362 68.5628 19.0362C69.9607 19.0362 71.5536 18.6461 72.5288 17.8984L73.7967 20.7916C72.2688 21.8318 70.1882 22.4172 68.2377 22.4172C63.2966 22.4172 60.1108 19.7515 60.1108 15.3628Z" fill="#636363"/>
<path fill-rule="evenodd" clip-rule="evenodd" d="M76.9173 19.5888L79.2254 16.6956C80.1682 17.8007 82.4437 19.1661 84.7193 19.1661C86.1172 19.1661 86.9949 18.4185 86.9949 17.5408C86.9949 15.4278 78.9979 15.9479 78.9979 11.2341C78.9979 8.50336 81.2734 5.93546 85.467 5.93546C88.1327 5.93546 90.6357 6.94296 92.1311 8.47085L89.9855 11.2341C89.2379 10.2589 87.2875 9.18616 85.3694 9.18616C83.9066 9.18616 83.0939 9.8362 83.0939 10.649C83.0939 12.5669 91.091 12.1444 91.091 16.9231C91.091 19.9139 88.5877 22.4171 84.2967 22.4171C81.436 22.4171 78.6728 21.4418 76.9173 19.5888Z" fill="#636363"/>
<path fill-rule="evenodd" clip-rule="evenodd" d="M92.8105 19.5888L95.1186 16.6956C96.0611 17.8007 98.337 19.1661 100.612 19.1661C102.01 19.1661 102.888 18.4185 102.888 17.5408C102.888 15.4278 94.8911 15.9479 94.8911 11.2341C94.8911 8.50336 97.1667 5.93546 101.36 5.93546C104.026 5.93546 106.529 6.94296 108.024 8.47085L105.879 11.2341C105.131 10.2589 103.181 9.18616 101.263 9.18616C99.7998 9.18616 98.9871 9.8362 98.9871 10.649C98.9871 12.5669 106.984 12.1444 106.984 16.9231C106.984 19.9139 104.481 22.4171 100.19 22.4171C97.3289 22.4171 94.5657 21.4418 92.8105 19.5888Z" fill="#636363"/>
<path fill-rule="evenodd" clip-rule="evenodd" d="M109.455 22.0268L114.233 0.344025H115.924L111.145 22.0268H109.455Z" fill="#6F6F6F"/>
<path fill-rule="evenodd" clip-rule="evenodd" d="M118.849 15.6555C118.849 18.8737 120.734 20.8892 123.595 20.8892C125.806 20.8892 127.854 19.4913 128.926 17.8659L130.584 10.324C129.804 8.76369 127.919 7.46335 125.383 7.46335C121.45 7.46335 118.849 11.5269 118.849 15.6555ZM130.909 8.99112L131.463 6.32543H133.185L129.707 22.027H127.984L128.536 19.654C127.236 21.3118 125.383 22.4172 123.14 22.4172C119.532 22.4172 116.996 20.0114 116.996 15.9804C116.996 10.6816 120.279 5.93533 125.253 5.93533C127.821 5.93533 129.837 7.20316 130.909 8.99112Z" fill="#6F6F6F"/>
<path fill-rule="evenodd" clip-rule="evenodd" d="M145.57 22.0268L147.912 11.3642C147.976 11.0715 148.106 10.6165 148.106 10.2264C148.106 8.2758 146.611 7.46322 144.595 7.46322C142.645 7.46322 140.63 8.79619 139.297 10.1939L136.664 22.0268H134.973L138.452 6.32543H140.142L139.622 8.69866C141.019 7.33331 143.068 5.93546 145.277 5.93546C147.944 5.93546 149.862 7.20302 149.862 9.77144C149.862 10.064 149.764 10.7466 149.667 11.104L147.262 22.0268H145.57Z" fill="#6F6F6F"/>
<path fill-rule="evenodd" clip-rule="evenodd" d="M166.863 13.3797C166.896 13.2172 166.896 12.8596 166.896 12.6646C166.896 9.60865 165.043 7.39821 161.662 7.39821C158.509 7.39821 155.714 10.1614 155.16 13.3797H166.863ZM153.145 15.4928C153.145 10.2591 156.98 5.93533 161.857 5.93533C166.051 5.93533 168.521 8.89372 168.521 12.7296C168.521 13.4123 168.358 14.3226 168.262 14.7126H154.998C154.965 14.9076 154.933 15.3302 154.933 15.623C154.933 18.5161 156.851 20.9542 160.687 20.9542C162.28 20.9542 164.068 20.4015 165.433 19.2636L166.083 20.4989C164.686 21.5718 162.669 22.4172 160.622 22.4172C155.908 22.4172 153.145 19.5888 153.145 15.4928Z" fill="#6F6F6F"/>
<path fill-rule="evenodd" clip-rule="evenodd" d="M7.7567 1.13339H5.17461L10.1778 11.0148L0.108856 21.9905H2.69095L12.7599 11.0148L7.7567 1.13339Z" fill="#F0BAA1"/>
<path fill-rule="evenodd" clip-rule="evenodd" d="M13.6174 8.04413L10.2089 1.13339H7.7567L12.7598 11.0148L2.69107 21.9905H5.19576L15.1936 11.0922L13.6174 8.04413Z" fill="#EA8F6B"/>
<path fill-rule="evenodd" clip-rule="evenodd" d="M19.7749 11.2925L18.0951 8.04413L14.6867 1.13339H12.182L15.5904 8.04413L17.2702 11.2925L14.3396 14.5796L7.64783 21.9905H10.1525L16.8443 14.5796L19.7749 11.2925Z" fill="#DF582E"/>
<path fill-rule="evenodd" clip-rule="evenodd" d="M17.5568 11.2925L15.8771 8.04413L12.4686 1.13339H9.9389L14.9421 11.0149L14.8711 11.0922L14.9747 11.2925L12.0442 14.5796L5.35239 21.9905H7.93448L14.6263 14.5796L17.5568 11.2925Z" fill="#DF582E"/>
<path fill-rule="evenodd" clip-rule="evenodd" d="M15.1303 11.2174L15.0259 11.0157L4.95776 21.9904H5.44036L12.1791 14.5273L15.1303 11.2174Z" fill="#DF582E"/>
<path fill-rule="evenodd" clip-rule="evenodd" d="M29.5552 1.11688H23.9991L18.7866 7.12448L20.7181 10.8851L29.5552 1.11688Z" fill="#636363"/>
<path fill-rule="evenodd" clip-rule="evenodd" d="M17.2761 15.6587L20.544 22.0453H25.5287L20.5221 12.1086L17.2761 15.6587Z" fill="#636363"/>
</g>
<defs>
<clipPath id="clip0">
<rect width="169" height="28" fill="white"/>
</clipPath>
</defs>
</svg>
